<svg height="73" viewBox="0 0 138 73" width="138" xmlns="http://www.w3.org/2000/svg"><g fill="#c4352b" fill-rule="evenodd" transform="translate(.442 .461)"><path d="m12.128 34.117c-7.887 0-11.93-4.536-12.128-13.509 0-8.923 3.994-13.41 12.03-13.557 6.31 0 10.057 2.809 11.191 8.479h-7.148c-.789-1.774-2.169-2.712-4.241-2.712-3.451 0-5.176 2.614-5.176 7.79 0 5.177 1.824 7.79 5.472 7.741 1.529 0 2.86-.641 3.945-1.874.64-.641 1.38-.936 2.218-.936h4.93c-1.183 5.324-5.028 8.727-11.093 8.578"/><path d="m39.739 22.827v-2.416c-1.529.642-3.304 1.184-5.227 1.577-2.612.494-3.943 1.727-3.943 3.649.147 2.071 1.232 3.056 3.302 3.056 3.649 0 5.868-2.169 5.868-5.866zm-8.284-8.579h-6.556c.789-4.831 4.19-7.197 10.205-7.197 7.198 0 10.847 2.366 10.994 7.197v8.875c0 7.197-4.338 10.402-11.389 10.895-6.26.494-10.599-2.416-10.599-8.184.148-6.261 4.683-7.938 11.29-8.578 2.81-.345 4.24-1.184 4.24-2.613-.148-1.479-1.528-2.219-4.24-2.219-2.318 0-3.599.592-3.945 1.824z"/><path d="m59.412 28.151c3.549 0 5.374-2.514 5.521-7.543 0-5.275-1.873-7.888-5.62-7.888s-5.522 2.613-5.473 7.888c.197 5.029 2.022 7.543 5.572 7.543zm-5.572 12.325c0 2.17-1.084 3.254-3.254 3.254h-3.302v-24.946c.344-7.79 4.387-11.635 12.226-11.635 8.086 0 12.128 4.388 12.128 13.163 0 8.875-3.451 13.459-10.402 13.706-3.254 0-5.719-1.331-7.396-4.042z"/><path d="m79.972 12.129h-.69v14.445c0 1.084.641 1.676 1.922 1.676h2.022v4.979c-2.12.198-4.437.198-6.902-.049-2.465-.246-3.649-1.775-3.599-4.684v-28.496h3.401c1.726 0 3.156 1.578 3.156 3.304v4.141h3.944v1.43c0 1.873-1.43 3.254-3.254 3.254"/><path d="m99.053 22.827v-2.416c-1.528.642-3.304 1.184-5.226 1.577-2.613.494-3.944 1.727-3.944 3.649.148 2.071 1.233 3.056 3.303 3.056 3.648 0 5.867-2.169 5.867-5.866zm-8.283-8.579h-6.557c.789-4.831 4.191-7.197 10.205-7.197 7.199 0 10.847 2.366 10.994 7.197v8.875c0 7.197-4.337 10.402-11.388 10.895-6.261.494-10.6-2.416-10.6-8.184.149-6.261 4.684-7.938 11.29-8.578 2.811-.345 4.24-1.184 4.24-2.613-.148-1.479-1.528-2.219-4.24-2.219-2.317 0-3.598.592-3.944 1.824z"/><path d="m109.998 7.445c2.121 0 3.156 1.035 3.156 3.156v22.924h-6.557v-26.08zm0-7.445c2.17 0 3.206 1.085 3.156 3.205v1.923h-6.557v-5.128z"/><path d="m133.762 33.525c-2.169-.148-3.253-1.183-3.253-3.254v-13.41c-.148-2.712-1.627-4.043-4.536-4.043s-4.388 1.331-4.437 4.043v16.664h-6.656v-15.333c0-7.444 3.747-11.141 11.192-11.141 7.444 0 11.092 3.697 11.043 11.141v15.333z"/><path d="m38.841 51.864h-.887v19.622h-6.557v-26.77c-.246-4.98 2.662-6.952 7.543-6.952 1.134 0 2.169.049 3.155.197v5.424h-1.725c-1.529 0-2.367.64-2.515 1.923v1.725h4.24v1.528c0 1.775-1.478 3.303-3.254 3.303"/><path d="m43.377 58.027c.198-8.43 4.684-12.621 13.41-12.621h.937v6.803h-2.219c-3.648 0-5.472 1.924-5.472 5.72v13.557h-6.656z"/><path d="m65.465 55.611h9.812c-.395-3.451-2.022-5.226-4.832-5.226s-4.487 1.775-4.98 5.226zm4.98 16.467c-7.888-.246-11.832-4.832-11.832-13.706s3.993-13.312 11.93-13.36c8.284 0 12.178 5.078 11.685 15.283h-16.861c.247 3.994 1.972 6.015 5.176 6.015 1.529 0 2.958-.641 4.241-1.875.591-.64 1.331-.935 2.218-.935h4.831c-1.429 5.521-4.979 8.578-11.388 8.578z"/><path d="m94.703 66.754c2.76 0 4.141-.789 4.141-2.465 0-1.332-2.268-2.416-6.755-3.205-5.767-1.035-8.726-3.6-8.775-7.691 0-5.621 4.437-8.283 10.402-8.381 3.353 0 6.015.739 7.988 2.218 1.922 1.528 2.958 3.649 3.105 6.36h-4.142c-1.528-.049-2.513-.592-2.908-1.627-.443-1.134-1.775-1.775-3.944-1.775-2.564 0-3.846.691-3.846 2.021 0 1.332 1.677 2.367 5.078 3.008 4.438.887 7.346 2.021 8.776 3.352 1.233 1.282 1.824 2.86 1.824 4.634 0 6.41-5.028 8.776-11.931 8.776-3.648 0-6.409-.789-8.183-2.317-1.973-1.478-2.958-3.746-2.958-6.754h6.705c.147 2.86 2.217 3.846 5.423 3.846"/><path d="m118.664 50.879c-3.894 0-5.571 3.254-5.571 7.246v13.361h-6.556v-33.525h3.302c2.17 0 3.254 1.135 3.254 3.304v7.79c3.353-3.846 7.445-4.931 12.325-3.205 3.649 1.331 5.374 4.832 5.177 10.502v15.134h-6.508v-13.361c0-4.387-1.675-7.246-5.423-7.246"/><path d="m100.439 39.459c0 .937-.755 1.699-1.693 1.699h-38.19c-.937 0-1.699-.762-1.699-1.699 0-.938.762-1.699 1.699-1.699h38.19c.938 0 1.693.761 1.693 1.699"/></g></svg>