<svg width="165" height="60" fill="none" xmlns="http://www.w3.org/2000/svg"><path d="M19.755 12.56h5.007l-5.52 19.159h-4.493l-1.705-5.304-.676-4.384h-.081l-.73 4.357-1.517 5.331H5.548L0 12.56h5.033l2.274 9.174.487 4.059h.135l.46-4.032 2.138-6.711h3.68l1.976 6.738.622 4.005h.081l.541-4.005 2.328-9.228ZM31.123 31.719H26.28v-19.16h4.844v19.16ZM36.293 25.657c1.921 2.328 6.143 2.436 6.278.379.054-1.082-1.705-1.705-3.274-1.921-3.085-.487-5.9-2.436-5.9-6.09 0-3.653 3.41-5.736 6.928-5.736 2.328 0 4.573.65 6.55 3.058l-3.167 2.435c-2.003-2.138-5.44-2.056-5.52.163.053.92 1.055 1.461 2.543 1.786 3.41.622 6.82 1.813 6.603 6.522-.162 3.707-4.059 5.737-7.577 5.737-2.3 0-4.736-1.164-6.522-3.464l3.058-2.869ZM54.318 20.082h7.766v4.195h-7.767v2.868h8.444v4.574H49.419V12.56h13.342v4.546h-8.444v2.977ZM72.505 12.56c3.843 0 7.442 1.947 7.442 6.413v6.44c0 4.412-3.6 6.333-7.442 6.306h-7.171V12.56h7.17Zm.162 14.612c1.651 0 2.409-.838 2.409-2.083v-5.981c0-1.245-.785-2.03-2.409-2.03h-2.462v10.095h2.462ZM88.31 25.63h-.866v6.09h-4.898V12.56h7.658c3.951 0 7.009 1.812 7.117 6.304 0 3.546-1.434 5.548-3.761 6.279l5.222 6.576h-6.034L88.31 25.63Zm1.975-4.168c3.059 0 3.059-4.383 0-4.383h-2.84v4.383h2.84ZM104.874 31.719h-4.844v-19.16h4.844v19.16ZM119.19 12.532h5.195l-6.9 19.16h-4.438l-6.901-19.16h5.196l3.004 9.363.866 4.546h.081l.866-4.519 3.031-9.39ZM130.557 20.082h7.767v4.195h-7.767v2.868H139v4.574h-13.341V12.56H139v4.546h-8.443v2.977ZM11.309 43.208v4.422H9.824v-4.422H8.28v-1.395h4.57v1.395h-1.542ZM16.294 47.63h-1.477V41.82h1.477v2.199h1.673V41.82h1.477v5.809h-1.477v-2.19h-1.673v2.19ZM23.24 44.102h2.355v1.271H23.24v.87h2.56v1.386h-4.044v-5.808H25.8v1.378h-2.56v.902ZM36.176 41.821h1.517L36.02 47.63h-1.362l-.517-1.608-.205-1.33h-.024l-.222 1.322-.46 1.616H31.87l-1.682-5.808h1.526l.69 2.78.147 1.231h.04l.14-1.222.648-2.034h1.116l.599 2.043.188 1.214h.025l.164-1.215.706-2.797ZM43.958 47.63h-1.575l-.377-1.166h-1.55l-.362 1.166H38.52l2.027-5.809h1.337l2.076 5.809Zm-2.305-2.47-.402-1.698h-.041l-.427 1.699h.87ZM47.484 45.783h-.263v1.846h-1.484v-5.808h2.321c1.198 0 2.125.55 2.158 1.911 0 1.075-.435 1.682-1.14 1.903l1.583 1.994h-1.83l-1.345-1.846Zm.599-1.263c.927 0 .927-1.329 0-1.329h-.862v1.329h.862ZM54.176 45.783h-.262v1.846h-1.485v-5.808h2.322c1.198 0 2.125.55 2.157 1.911 0 1.075-.434 1.682-1.14 1.903l1.584 1.994h-1.83l-1.345-1.846Zm.6-1.263c.926 0 .926-1.329 0-1.329h-.862v1.329h.861ZM64.052 47.63h-1.575l-.377-1.166h-1.551l-.361 1.166h-1.575l2.026-5.809h1.338l2.075 5.809Zm-2.305-2.47-.402-1.698h-.041l-.427 1.699h.87ZM65.83 41.821h1.394l1.403 2.478.493 1.165.04-.008c-.007 0-.155-1.001-.163-1.001V41.82h1.46v5.809h-1.485l-1.313-2.29-.508-1.164-.041.008.188 1.124v2.322H65.83V41.82ZM75.45 43.208v4.422h-1.484v-4.422h-1.542v-1.395h4.57v1.395H75.45ZM80.453 47.63v-2.29l-2.026-3.519h1.706l1.05 2.133 1.05-2.133h1.724l-2.035 3.52v2.289h-1.468ZM92.576 46.407a2.336 2.336 0 0 1-2.092 1.304c-1.14 0-2.289-.664-2.289-1.985v-2.002c0-1.312 1.149-1.985 2.314-1.985.714 0 1.575.303 2.043 1.337l-1.198.484c-.394-.722-1.69-.558-1.69.164v2.002c0 .697 1.312.894 1.632.09l1.28.59ZM94.362 43.733c0-1.338 1.198-1.994 2.404-1.994 1.205 0 2.412.664 2.412 1.994v1.985c0 1.329-1.198 1.993-2.404 1.993s-2.412-.664-2.412-1.993v-1.985Zm1.469 1.985c0 .426.476.631.943.631.467 0 .935-.213.935-.631v-1.985c0-.451-.484-.657-.96-.657-.475 0-.918.23-.918.657v1.985ZM101.35 41.821h1.469l1.222 2.839 1.23-2.839h1.469v5.809h-1.477l.009-1.674.09-1.173-.049-.008-.763 1.993h-1.009l-.78-1.993-.041.008.099 1.173v1.674h-1.469V41.82ZM109.052 41.821h2.321c1.419 0 2.125 1.026 2.125 2.051 0 1.026-.714 2.06-2.117 2.06h-.861v1.698h-1.468V41.82Zm2.321 2.806c.886.008.886-1.444 0-1.436h-.853v1.436h.853ZM119.944 47.63h-1.575l-.378-1.166h-1.55l-.361 1.166h-1.575l2.026-5.809h1.337l2.076 5.809Zm-2.306-2.47-.402-1.698h-.041l-.426 1.699h.869ZM121.722 41.821h1.395l1.403 2.478.492 1.165.041-.008c-.008 0-.156-1.001-.164-1.001V41.82h1.46v5.809h-1.485l-1.312-2.29-.509-1.164-.041.008.189 1.124v2.322h-1.469V41.82ZM130.154 47.63v-2.29l-2.027-3.519h1.707l1.05 2.133 1.05-2.133h1.723l-2.034 3.52v2.289h-1.469Z" fill="#32449C"/><path d="M129.488 36.825H10.568v.58h118.92v-.58Z" fill="#F7941D"/></svg>